<?xml version="1.0" standalone="no"?>
<!DOCTYPE svg PUBLIC "-//W3C//DTD SVG 20010904//EN"
 "http://www.w3.org/TR/2001/REC-SVG-20010904/DTD/svg10.dtd">
<svg version="1.0" xmlns="http://www.w3.org/2000/svg"
 width="600.000000pt" height="600.000000pt" viewBox="0 0 600.000000 600.000000"
 preserveAspectRatio="xMidYMid meet">
<metadata>
Created by potrace 1.11, written by Peter Selinger 2001-2013
</metadata>
<g transform="translate(0.000000,600.000000) scale(0.100000,-0.100000)"
fill="#000000" stroke="none">
<path d="M2070 5971 c-112 -49 -192 -102 -266 -175 -91 -91 -130 -168 -146
-290 l-12 -88 -40 4 c-23 3 -86 22 -141 43 -105 39 -144 41 -191 10 -33 -22
-30 -35 9 -35 38 0 100 -37 167 -99 l45 -41 -56 6 c-32 3 -72 3 -90 -1 -30 -7
-31 -8 -13 -19 12 -6 48 -33 82 -60 71 -56 70 -67 -11 -91 -63 -19 -98 -19
-142 -1 -34 15 -35 14 -35 -8 0 -38 -24 -96 -80 -190 -132 -223 -150 -334
-104 -625 19 -117 48 -263 80 -406 14 -60 29 -130 34 -155 8 -45 47 -189 94
-351 31 -104 85 -249 94 -250 4 0 44 -6 90 -13 l82 -12 0 26 c0 14 -7 107 -16
205 -27 319 -16 560 42 900 81 479 273 746 584 811 95 20 288 13 410 -15 199
-47 715 -49 895 -5 110 28 335 25 445 -4 165 -45 337 -155 436 -280 138 -174
217 -423 200 -636 -3 -45 -10 -250 -15 -456 -6 -206 -13 -414 -17 -461 l-7
-85 94 13 c51 8 93 15 94 16 122 352 245 848 290 1167 22 159 17 469 -11 679
l-6 43 -27 -26 -28 -27 -7 32 c-3 17 -6 42 -6 55 0 24 -1 24 -25 8 -14 -9 -28
-15 -30 -12 -11 11 79 168 139 243 35 44 63 82 61 84 -11 10 -156 -36 -230
-74 -47 -23 -85 -41 -85 -40 0 11 56 148 80 195 17 33 27 60 22 60 -5 0 -38
-20 -75 -45 -37 -25 -69 -45 -71 -45 -1 0 -8 25 -15 55 -16 71 -75 159 -152
227 -139 122 -179 162 -179 177 0 9 9 31 20 49 11 18 20 35 20 37 0 3 -24 5
-54 5 -48 0 -58 -4 -101 -42 -46 -40 -48 -41 -42 -16 4 14 10 33 13 42 6 15
-85 16 -1012 16 l-1019 -1 -65 -28z"/>
<path d="M1945 3960 c-95 -17 -191 -65 -275 -139 l-35 -30 78 39 c159 78 246
77 522 -9 168 -51 233 -66 350 -77 62 -5 73 -4 95 14 60 50 -20 88 -316 151
-245 53 -340 64 -419 51z"/>
<path d="M3890 3960 c-117 -15 -483 -99 -529 -122 -62 -32 -73 -53 -41 -80 22
-18 33 -19 95 -14 117 11 179 25 348 77 278 86 365 87 524 9 l78 -39 -35 30
c-129 114 -275 160 -440 139z"/>
<path d="M1990 3673 c-96 -17 -220 -77 -220 -106 0 -7 13 -33 28 -58 134 -210
416 -261 760 -137 45 16 82 33 82 38 0 13 -100 94 -178 144 -82 54 -185 98
-261 115 -51 11 -160 13 -211 4z m112 -66 c-28 -29 -52 -89 -52 -126 0 -47 29
-109 64 -137 l31 -26 -42 6 c-119 17 -254 124 -279 220 -5 23 -2 28 30 41 38
16 178 42 235 44 l34 1 -21 -23z m233 -11 c28 -12 35 -20 35 -43 0 -30 -16
-53 -34 -53 -6 0 -4 5 4 10 13 8 13 10 -2 10 -11 0 -15 5 -12 15 7 18 -7 20
-26 3 -8 -7 -6 -3 3 8 18 21 17 22 -9 43 -32 25 -12 29 41 7z m185 -102 c25
-18 55 -43 68 -57 l23 -24 -66 -27 c-64 -25 -174 -56 -204 -56 -10 0 -6 9 11
28 14 15 31 37 37 49 14 27 14 113 1 148 l-10 27 47 -27 c27 -16 68 -43 93
-61z m-373 -20 c-3 -3 -12 -4 -19 -1 -8 3 -5 6 6 6 11 1 17 -2 13 -5z m180
-20 c-3 -3 -12 -4 -19 -1 -8 3 -5 6 6 6 11 1 17 -2 13 -5z m-26 -41 c13 -16
12 -17 -3 -4 -10 7 -18 15 -18 17 0 8 8 3 21 -13z m-121 -13 c-6 -11 -13 -20
-16 -20 -2 0 0 9 6 20 6 11 13 20 16 20 2 0 0 -9 -6 -20z m37 -22 c-3 -7 -5
-2 -5 12 0 14 2 19 5 13 2 -7 2 -19 0 -25z m53 -3 c0 -5 -5 -3 -10 5 -5 8 -10
20 -10 25 0 6 5 3 10 -5 5 -8 10 -19 10 -25z m-113 -20 c-7 -19 -32 -10 -35
13 -3 21 -2 22 17 10 12 -7 20 -17 18 -23z"/>
<path d="M3765 3665 c-92 -23 -232 -98 -325 -173 -46 -37 -85 -72 -87 -78 -2
-7 32 -25 79 -42 274 -98 498 -89 652 27 58 44 136 140 136 167 0 21 -69 63
-140 85 -86 27 -235 34 -315 14z m122 -61 c24 -15 39 -54 30 -78 -6 -16 -47
-10 -47 6 0 5 -10 6 -22 2 -20 -6 -21 -5 -9 10 8 10 9 16 3 16 -6 0 -9 6 -6
13 3 8 -2 20 -10 27 -9 7 -13 16 -10 22 7 10 39 2 71 -18z m96 15 c97 -14 177
-38 183 -54 8 -20 -32 -91 -77 -136 -43 -43 -139 -94 -199 -105 l-35 -7 33 31
c76 72 81 184 10 259 -26 28 -22 28 85 12z m-373 -65 c-13 -34 -13 -120 1
-147 6 -12 23 -34 37 -49 l26 -28 -26 0 c-34 0 -190 46 -235 69 l-36 18 52 44
c49 43 166 119 183 119 4 0 3 -12 -2 -26z m95 -42 c-3 -3 -11 0 -18 7 -9 10
-8 11 6 5 10 -3 15 -9 12 -12z m-12 -39 c-7 -2 -19 -2 -25 0 -7 3 -2 5 12 5
14 0 19 -2 13 -5z m174 -19 c-3 -3 -12 -4 -19 -1 -8 3 -5 6 6 6 11 1 17 -2 13
-5z m-16 -41 c13 -17 13 -17 -6 -3 -11 8 -22 16 -24 17 -2 2 0 3 6 3 6 0 17
-8 24 -17z m-130 -16 c-10 -9 -11 -8 -5 6 3 10 9 15 12 12 3 -3 0 -11 -7 -18z
m46 -9 c-3 -8 -6 -5 -6 6 -1 11 2 17 5 13 3 -3 4 -12 1 -19z m41 -3 c-3 -3 -9
2 -12 12 -6 14 -5 15 5 6 7 -7 10 -15 7 -18z m-123 -5 c4 -6 10 -8 15 -5 10 6
7 -21 -3 -31 -9 -9 -37 15 -37 32 0 16 16 19 25 4z"/>
<path d="M3813 1208 l-53 -11 0 -64 c0 -35 11 -145 25 -244 l26 -181 -55 -97
c-30 -53 -83 -136 -118 -185 -63 -90 -240 -277 -352 -375 l-60 -51 1372 0
c755 0 1372 2 1372 5 0 12 -45 94 -83 150 -80 118 -230 246 -374 318 -137 70
-328 129 -542 167 -63 11 -115 21 -116 22 0 2 -6 30 -13 63 -14 69 -50 119
-109 152 -30 17 -68 25 -154 33 -63 5 -128 14 -146 19 -65 19 -150 74 -241
156 -51 46 -114 94 -139 106 -54 26 -159 33 -240 17z"/>
<path d="M2021 1184 c-69 -18 -126 -50 -226 -125 -177 -132 -257 -168 -407
-180 -108 -9 -166 -25 -201 -57 -29 -26 -57 -87 -57 -126 0 -41 15 -35 -195
-76 -179 -35 -301 -72 -402 -124 -139 -70 -272 -181 -367 -306 -47 -60 -119
-180 -113 -186 2 -2 612 -3 1356 -2 l1353 3 -81 69 c-155 130 -338 366 -441
568 l-44 86 18 143 c9 79 20 183 23 230 l6 86 -54 6 c-76 9 -106 8 -168 -9z"/>
</g>
</svg>
